<svg width="1401" height="355" viewBox="0 0 1401 355" fill="none" xmlns="http://www.w3.org/2000/svg">
<path fill-rule="evenodd" clip-rule="evenodd" d="M4.20005 5.6C4.20005 4.4 4.80005 4 5.80005 4H97.4001C98.4001 4 99.0001 4.6 99.0001 5.6V25C99.0001 26 98.4001 26.6 97.4001 26.6H34.8L34.4 65H94.6001C95.6001 65 96.2001 65.6 96.2001 66.6V86C96.2001 87 95.6001 87.6 94.6001 87.6H34.4L34.8 142.4C34.8 143.6 34.2001 144 33.2001 144H5.80005C4.80005 144 4.20005 143.6 4.20005 142.4L4.80005 74L4.20005 5.6ZM2.79997 74L2.20005 5.60877V5.6C2.20005 4.69463 2.42888 3.6436 3.2797 2.87012C4.09181 2.13183 5.09154 2 5.80005 2H97.4001C98.3011 2 99.2567 2.27817 99.9893 3.01079C100.722 3.74341 101 4.69899 101 5.6V25C101 25.901 100.722 26.8566 99.9893 27.5892C99.2567 28.3218 98.3011 28.6 97.4001 28.6H36.7793L36.421 63H94.6001C95.5011 63 96.4566 63.2782 97.1893 64.0108C97.9219 64.7434 98.2001 65.699 98.2001 66.6V86C98.2001 86.901 97.9219 87.8566 97.1893 88.5892C96.4566 89.3218 95.5011 89.6 94.6001 89.6H36.4147L36.8 142.393V142.4C36.8 143.305 36.5712 144.356 35.7204 145.13C34.9083 145.868 33.9085 146 33.2001 146H5.80005C5.09156 146 4.09183 145.868 3.27971 145.13C2.42888 144.356 2.20005 143.305 2.20005 142.4V142.391L2.79997 74ZM135.767 42.6L135.367 92.6L135.767 142.4C135.767 143.6 135.167 144 134.167 144H106.967C105.967 144 105.367 143.6 105.367 142.4L105.767 92.6L105.367 42.6C105.367 41.4 105.967 41 106.967 41H134.167C135.167 41 135.767 41.4 135.767 42.6ZM103.767 92.5999L103.367 42.608V42.6C103.367 41.6946 103.596 40.6436 104.447 39.8701C105.259 39.1318 106.259 39 106.967 39H134.167C134.876 39 135.875 39.1318 136.688 39.8701C137.538 40.6436 137.767 41.6946 137.767 42.6V42.608L137.367 92.5999L137.767 142.392V142.4C137.767 143.305 137.538 144.356 136.688 145.13C135.875 145.868 134.876 146 134.167 146H106.967C106.259 146 105.259 145.868 104.447 145.13C103.596 144.356 103.367 143.305 103.367 142.4V142.392L103.767 92.5999ZM213.678 65L213.515 64.9728C212.512 64.8057 211.095 64.8 209.844 64.8C199.599 64.8 190.923 67.6498 184.832 73.136C178.774 78.5935 175.044 86.8648 175.044 98.2V142.4C175.044 143.301 174.766 144.257 174.033 144.989C173.3 145.722 172.345 146 171.444 146H144.844C144.135 146 143.136 145.868 142.323 145.13C141.473 144.356 141.244 143.305 141.244 142.4V142.388L141.844 92.3995L141.244 42.612V42.6C141.244 41.6946 141.473 40.6436 142.323 39.8701C143.136 39.1318 144.135 39 144.844 39H171.444C172.152 39 173.152 39.1318 173.964 39.8701C174.815 40.6436 175.044 41.6946 175.044 42.6V42.6506L174.562 52.1739C183.197 42.7656 195.749 38.2 209.044 38.2C210.727 38.2 212.609 38.4007 214.328 38.8107C215.315 38.8857 216.157 39.3508 216.719 40.1C217.066 40.5632 217.262 41.0735 217.361 41.5609C217.508 41.0027 217.787 40.4641 218.241 40.0108C218.973 39.2782 219.929 39 220.83 39H246.63C247.338 39 248.338 39.1318 249.15 39.8701C250.001 40.6436 250.23 41.6946 250.23 42.6V42.6526L249.947 48.0193C256.903 40.607 265.633 36.6 277.23 36.6C284.712 36.6 291.311 38.2116 296.708 41.6655C301.117 44.4871 304.625 48.4762 307.142 53.6181C311.115 47.4962 315.433 43.3637 320.177 40.7053C325.75 37.5825 331.722 36.6 338.03 36.6C348.847 36.6 357.675 39.8926 363.752 47.0282C369.781 54.106 372.83 64.6502 372.83 78.6V107L373.23 142.389V142.4C373.23 143.305 373.001 144.356 372.15 145.13C371.338 145.868 370.338 146 369.63 146H342.43C341.721 146 340.722 145.868 339.909 145.13C339.059 144.356 338.83 143.305 338.83 142.4V142.389L339.23 107V79C339.23 73.0232 338.018 68.9145 336.102 66.3458C334.254 63.8684 331.586 62.6 328.03 62.6C324.839 62.6 320.886 64.7806 317.634 69.8109C314.411 74.7958 312.03 82.3976 312.03 92.6V107L312.43 142.389V142.4C312.43 143.305 312.201 144.356 311.35 145.13C310.538 145.868 309.538 146 308.83 146H281.63C280.921 146 279.922 145.868 279.109 145.13C278.259 144.356 278.03 143.305 278.03 142.4V142.389L278.43 107V79C278.43 73.007 277.261 68.9006 275.37 66.3373C273.555 63.8762 270.898 62.6 267.23 62.6C263.932 62.6 259.983 64.7885 256.763 69.8053C253.565 74.7871 251.23 82.3891 251.23 92.6V107L251.63 142.389V142.4C251.63 143.305 251.401 144.356 250.55 145.13C249.738 145.868 248.738 146 248.03 146H220.43C219.721 146 218.722 145.868 217.909 145.13C217.059 144.356 216.83 143.305 216.83 142.4V142.389L217.23 107V62.7111C217.07 63.1712 216.812 63.6101 216.433 63.9892C215.7 64.7218 214.745 65 213.844 65H213.678ZM219.23 107L218.83 142.4C218.83 143.6 219.43 144 220.43 144H248.03C249.03 144 249.63 143.6 249.63 142.4L249.23 107V92.6C249.23 71.6 258.83 60.6 267.23 60.6C275.63 60.6 280.43 66.6 280.43 79V107L280.03 142.4C280.03 143.6 280.63 144 281.63 144H308.83C309.83 144 310.43 143.6 310.43 142.4L310.03 107V92.6C310.03 71.6 319.83 60.6 328.03 60.6C336.23 60.6 341.23 66.6 341.23 79V107L340.83 142.4C340.83 143.6 341.43 144 342.43 144H369.63C370.63 144 371.23 143.6 371.23 142.4L370.83 107V78.6C370.83 51.2 358.83 38.6 338.03 38.6C326.424 38.6 316.627 42.0391 308.125 55.8052C307.69 56.5095 307.258 57.2408 306.83 58C306.535 57.1891 306.219 56.4047 305.882 55.6464C300.737 44.0617 290.745 38.6 277.23 38.6C265.307 38.6 256.648 43.0052 249.779 51.2262C249.042 52.1072 248.327 53.0321 247.63 54L248.23 42.6C248.23 41.4 247.63 41 246.63 41H220.83C219.83 41 219.23 41.6 219.23 42.6V107ZM214.044 40.8C212.444 40.4 210.644 40.2 209.044 40.2C195.313 40.2 182.588 45.2276 174.396 55.436C173.639 56.3797 172.921 57.3677 172.244 58.4L173.044 42.6C173.044 41.4 172.444 41 171.444 41H144.844C143.844 41 143.244 41.4 143.244 42.6L143.844 92.4L143.244 142.4C143.244 143.6 143.844 144 144.844 144H171.444C172.444 144 173.044 143.4 173.044 142.4V98.2C173.044 74.6 188.644 62.8 209.844 62.8C211.044 62.8 212.644 62.8 213.844 63C214.844 63 215.444 62.4 215.444 61.4V42.4C215.444 41.6 215.044 40.8 214.044 40.8ZM429.858 143.028L429.843 143.085C429.485 144.518 428.262 146 426.303 146H393.903C392.21 146 390.591 144.799 390.163 143.085L390.156 143.058L368.139 43.1799L368.13 43.1288C367.973 42.1815 368.068 41.0677 368.817 40.1696C369.567 39.2698 370.627 39 371.503 39H398.503C399.443 39 400.333 39.3014 401.017 39.9858C401.638 40.6065 401.905 41.363 402.043 41.9149L402.066 42.0053L411.916 106.366L424.149 41.9705L424.163 41.9149C424.521 40.482 425.744 39 427.703 39H461.103C463.062 39 464.285 40.482 464.643 41.9149L464.658 41.9742L476.382 105.01L486.743 41.9945L486.763 41.9149C486.901 41.363 487.168 40.6065 487.789 39.9858C488.473 39.3014 489.363 39 490.303 39H514.903C515.78 39 516.84 39.2698 517.59 40.1697C518.338 41.0678 518.434 42.1815 518.276 43.1288L518.268 43.178L496.451 143.056L496.443 143.085C496.015 144.799 494.396 146 492.703 146H460.103C458.41 146 456.791 144.799 456.363 143.085L456.355 143.053L442.232 77.3215L429.858 143.028ZM442.103 67.2L458.303 142.6C458.503 143.4 459.303 144 460.103 144H492.703C493.503 144 494.303 143.4 494.503 142.6L516.303 42.8C516.503 41.6 515.903 41 514.903 41H490.303C489.303 41 488.903 41.6 488.703 42.4L476.503 116.6L462.703 42.4C462.503 41.6 461.903 41 461.103 41H427.703C426.903 41 426.303 41.6 426.103 42.4L411.703 118.2L400.103 42.4C399.903 41.6 399.503 41 398.503 41H371.503C370.503 41 369.903 41.6 370.103 42.8L392.103 142.6C392.303 143.4 393.103 144 393.903 144H426.303C427.103 144 427.703 143.4 427.903 142.6L442.103 67.2ZM587.719 142.4L588.119 132C587.447 132.821 586.75 133.61 586.026 134.367C578.992 141.725 569.506 146 557.719 146C528.519 146 513.119 122.8 513.119 92.8C513.119 63 530.319 39 558.319 39C569.858 39 579.122 42.7385 585.963 49.6295C586.711 50.3823 587.429 51.1727 588.119 52L587.519 42.6C587.519 41.4 588.119 41 589.119 41H616.119C617.119 41 617.719 41.4 617.719 42.6L617.319 92.6L617.719 142.4C617.719 143.6 617.119 144 616.119 144H589.319C588.319 144 587.719 143.6 587.719 142.4ZM619.319 92.5839V92.616L619.719 142.392V142.4C619.719 143.305 619.49 144.356 618.639 145.13C617.827 145.868 616.827 146 616.119 146H589.319C588.61 146 587.611 145.868 586.798 145.13C585.948 144.356 585.719 143.305 585.719 142.4V142.362L585.914 137.295C578.68 144.096 569.209 148 557.719 148C542.529 148 530.79 141.937 522.896 131.885C515.047 121.892 511.119 108.116 511.119 92.8C511.119 77.5329 515.523 63.6166 523.659 53.4737C531.824 43.2932 543.69 37 558.319 37C569.474 37 578.711 40.3737 585.776 46.6946L585.519 42.6638V42.6C585.519 41.6946 585.748 40.6436 586.598 39.8701C587.411 39.1318 588.41 39 589.119 39H616.119C616.827 39 617.827 39.1318 618.639 39.8701C619.49 40.6436 619.719 41.6946 619.719 42.6V42.608L619.319 92.5839ZM566.105 124H566.119C572.839 124 577.791 121.512 581.176 116.635C584.647 111.634 586.621 103.903 586.719 93.1818C586.817 82.3704 584.938 74.3194 581.513 69.0091C578.164 63.8168 573.246 61.0908 566.691 60.9998L566.679 60.9996L566.666 60.9993C559.652 60.8147 554.571 63.3139 551.152 68.154C547.644 73.12 545.719 80.7879 545.719 91.2C545.719 102.627 547.699 110.925 551.194 116.282C554.602 121.506 559.544 124.091 566.091 124L566.105 124ZM694.928 65L694.765 64.9728C693.762 64.8057 692.345 64.8 691.094 64.8C680.849 64.8 672.173 67.6498 666.082 73.136C660.024 78.5935 656.294 86.8648 656.294 98.2V142.4C656.294 143.301 656.016 144.257 655.283 144.989C654.55 145.722 653.595 146 652.694 146H626.094C625.385 146 624.386 145.868 623.573 145.13C622.723 144.356 622.494 143.305 622.494 142.4V142.388L622.494 142.376L623.094 92.4241V92.376L622.494 42.6241L622.494 42.612V42.6C622.494 41.6946 622.723 40.6436 623.573 39.8701C624.386 39.1318 625.385 39 626.094 39H652.694C653.402 39 654.402 39.1318 655.214 39.8701C656.065 40.6436 656.294 41.6946 656.294 42.6V42.6506L655.812 52.1739C664.447 42.7656 676.999 38.2 690.294 38.2C691.977 38.2 693.859 38.4007 695.578 38.8107C696.565 38.8857 697.407 39.3508 697.969 40.1C698.525 40.8418 698.694 41.7044 698.694 42.4V61.0355C700.605 57.704 702.862 54.6565 705.45 51.9245C714.888 41.9621 728.547 36.4 745.402 36.4C762.774 36.4 776.507 42.2259 785.948 52.8731C795.355 63.4825 800.296 78.6462 800.601 96.9667L800.602 96.9833V97C800.602 97.9011 800.323 98.8566 799.591 99.5892C798.858 100.322 797.903 100.6 797.002 100.6H725.359C726.121 108.967 728.194 114.799 731.382 118.587C734.757 122.598 739.627 124.6 746.402 124.6C751.21 124.6 755.091 123.517 758.044 121.281C760.983 119.055 763.229 115.515 764.452 110.155L764.487 110.003L764.545 109.857C764.834 109.133 765.272 108.435 765.952 107.925C766.656 107.397 767.448 107.2 768.202 107.2H794.002C794.874 107.2 795.891 107.465 796.631 108.28C797.385 109.109 797.547 110.167 797.378 111.111C794.796 131.289 775.76 148.6 746.002 148.6C728.345 148.6 714.531 142.786 705.142 132.768C695.772 122.769 691.002 108.79 691.002 92.8C691.002 82.2187 692.996 72.6941 696.828 64.6069C696.277 64.8847 695.674 65 695.094 65H694.928ZM795.402 110.8C795.602 109.8 795.002 109.2 794.002 109.2H768.202C767.402 109.2 766.802 109.6 766.402 110.6C763.802 122 756.602 126.6 746.402 126.6C732.506 126.6 724.943 118.592 723.351 100.6C723.294 99.9465 723.244 99.2799 723.202 98.6H797.002C798.002 98.6 798.602 98 798.602 97C798.002 61 779.202 38.4 745.402 38.4C712.602 38.4 693.002 60 693.002 92.8C693.002 124 711.602 146.6 746.002 146.6C775.002 146.6 793.002 129.8 795.402 110.8ZM695.294 40.8C693.694 40.4 691.894 40.2 690.294 40.2C676.563 40.2 663.838 45.2275 655.646 55.436C654.889 56.3797 654.171 57.3677 653.494 58.4L654.294 42.6C654.294 41.4 653.694 41 652.694 41H626.094C625.094 41 624.494 41.4 624.494 42.6L625.094 92.4L624.494 142.4C624.494 143.6 625.094 144 626.094 144H652.694C653.694 144 654.294 143.4 654.294 142.4V98.2C654.294 74.6 669.894 62.8 691.094 62.8C692.294 62.8 693.894 62.8 695.094 63C696.094 63 696.694 62.4 696.694 61.4V42.4C696.694 41.6 696.294 40.8 695.294 40.8ZM905.872 1.83006L905.916 1.83884C906.558 1.96725 907.426 2.23009 908.085 2.96211C908.779 3.73349 908.923 4.66247 908.923 5.4V23.2C908.923 23.8857 908.8 24.8304 908.185 25.5993C907.85 26.0181 907.386 26.3578 906.809 26.5262C906.247 26.6901 905.703 26.6563 905.238 26.5403C902.251 25.7934 898.627 25.4 893.523 25.4C890.521 25.4 888.358 26.1257 886.905 27.6702C885.425 29.2442 884.323 32.0465 884.323 37V39H905.323C906.224 39 907.18 39.2782 907.913 40.0108C908.645 40.7434 908.923 41.699 908.923 42.6V60.6C908.923 61.0689 908.848 61.5526 908.673 62.012C910.698 58.2964 913.144 54.9186 916 51.9205C925.495 41.9539 939.307 36.4 956.548 36.4C973.775 36.4 987.491 41.7944 996.893 51.617C1006.28 61.4269 1011.15 75.4203 1011.15 92.2C1011.15 108.979 1006.28 123.115 996.904 133.071C987.508 143.045 973.792 148.6 956.548 148.6C939.323 148.6 925.512 143.207 916.011 133.391C906.52 123.585 901.548 109.591 901.548 92.8C901.548 81.4096 903.836 71.24 908.268 62.7695C908.164 62.9156 908.046 63.0561 907.913 63.1892C907.18 63.9218 906.224 64.2 905.323 64.2H884.323V98.6L885.123 142.363L885.123 142.382V142.4C885.123 143.305 884.895 144.356 884.044 145.13C883.232 145.868 882.232 146 881.523 146H853.724C853.015 146 852.015 145.868 851.203 145.13C850.352 144.356 850.123 143.305 850.123 142.4V142.382L850.124 142.363L850.923 98.6V64.2H838.923C838.022 64.2 837.067 63.9218 836.334 63.1892C835.602 62.4566 835.323 61.501 835.323 60.6V42.6C835.323 41.699 835.602 40.7434 836.334 40.0108C837.067 39.2782 838.022 39 838.923 39H850.923V34.2C850.923 21.9873 855.229 13.3349 862.005 7.77847C868.717 2.27511 877.616 0 886.523 0C893.089 0 900.619 1.02199 905.828 1.82326L905.872 1.83006ZM852.923 98.6L852.123 142.4C852.123 143.6 852.724 144 853.724 144H881.523C882.523 144 883.123 143.6 883.123 142.4L882.323 98.6V62.2H905.323C906.323 62.2 906.923 61.6 906.923 60.6V42.6C906.923 41.6 906.323 41 905.323 41H882.323V37C882.323 26.6 886.924 23.4 893.523 23.4C898.724 23.4 902.523 23.8 905.724 24.6C906.523 24.8 906.923 24.2 906.923 23.2V5.4C906.923 4.4 906.523 4 905.523 3.8C900.323 3 892.924 2 886.523 2C869.323 2 852.923 10.8 852.923 34.2V41H838.923C837.923 41 837.323 41.6 837.323 42.6V60.6C837.323 61.6 837.923 62.2 838.923 62.2H852.923V98.6ZM1084.38 65L1084.22 64.9728C1083.22 64.8057 1081.8 64.8 1080.55 64.8C1070.3 64.8 1061.63 67.6498 1055.54 73.136C1049.48 78.5935 1045.75 86.8648 1045.75 98.2V142.4C1045.75 143.301 1045.47 144.257 1044.74 144.989C1044 145.722 1043.05 146 1042.15 146H1015.55C1014.84 146 1013.84 145.868 1013.03 145.13C1012.18 144.356 1011.95 143.305 1011.95 142.4V142.388L1011.95 142.376L1012.55 92.4241V92.376L1011.95 42.6241L1011.95 42.612V42.6C1011.95 41.6946 1012.18 40.6436 1013.03 39.8701C1013.84 39.1318 1014.84 39 1015.55 39H1042.15C1042.86 39 1043.86 39.1318 1044.67 39.8701C1045.52 40.6436 1045.75 41.6946 1045.75 42.6V42.6506L1045.26 52.1739C1053.9 42.7656 1066.45 38.2 1079.75 38.2C1081.43 38.2 1083.31 38.4007 1085.03 38.8107C1086.02 38.8857 1086.86 39.3508 1087.42 40.1C1087.98 40.8418 1088.15 41.7043 1088.15 42.4V61.4C1088.15 62.3011 1087.87 63.2567 1087.14 63.9893C1086.4 64.7218 1085.45 65 1084.55 65H1084.38ZM1084.75 40.8C1083.15 40.4 1081.35 40.2 1079.75 40.2C1066.02 40.2 1053.29 45.2275 1045.1 55.436C1044.34 56.3797 1043.62 57.3677 1042.95 58.4L1043.75 42.6C1043.75 41.4 1043.15 41 1042.15 41H1015.55C1014.55 41 1013.95 41.4 1013.95 42.6L1014.55 92.4L1013.95 142.4C1013.95 143.6 1014.55 144 1015.55 144H1042.15C1043.15 144 1043.75 143.4 1043.75 142.4V98.2C1043.75 74.6 1059.35 62.8 1080.55 62.8C1081.75 62.8 1083.35 62.8 1084.55 63C1085.55 63 1086.15 62.4 1086.15 61.4V42.4C1086.15 41.6 1085.75 40.8 1084.75 40.8ZM1130.75 16.8083V16.8C1130.75 15.8945 1130.98 14.8435 1131.83 14.0701C1132.64 13.3318 1133.64 13.2 1134.35 13.2H1161.15C1161.86 13.2 1162.86 13.3318 1163.67 14.0701C1164.52 14.8436 1164.75 15.8946 1164.75 16.8V16.8083L1164.75 16.8165L1164.57 39H1185.75C1186.65 39 1187.61 39.2782 1188.34 40.0107C1189.07 40.7433 1189.35 41.6989 1189.35 42.6V60.6C1189.35 61.5011 1189.07 62.4567 1188.34 63.1893C1187.61 63.9218 1186.65 64.2 1185.75 64.2H1164.56L1164.75 112.992V113C1164.75 117.094 1165.77 119.359 1167.14 120.639C1168.54 121.943 1170.68 122.6 1173.75 122.6C1178.29 122.6 1181.89 121.85 1184.78 121.081C1185.71 120.786 1186.9 120.724 1187.9 121.475C1188.9 122.222 1189.15 123.358 1189.15 124.2V140.6C1189.15 141.896 1188.48 143.778 1186.52 144.317C1180.44 146.34 1173.63 148 1166.75 148C1157.75 148 1148.75 145.727 1141.97 140.229C1135.11 134.676 1130.75 126.022 1130.75 113.8V113.792L1130.94 64.2H1121.15C1120.25 64.2 1119.29 63.9218 1118.56 63.1892C1117.83 62.4566 1117.55 61.501 1117.55 60.6V42.6C1117.55 41.699 1117.83 40.7434 1118.56 40.0108C1119.29 39.2782 1120.25 39 1121.15 39H1130.93L1130.75 16.8165L1130.75 16.8083ZM1132.95 41H1121.15C1120.15 41 1119.55 41.6 1119.55 42.6V60.6C1119.55 61.6 1120.15 62.2 1121.15 62.2H1132.95L1132.75 113.8C1132.75 137.2 1149.35 146 1166.75 146C1173.35 146 1179.95 144.4 1185.95 142.4C1186.75 142.2 1187.15 141.4 1187.15 140.6V124.2C1187.15 123.2 1186.55 122.6 1185.35 123C1182.35 123.8 1178.55 124.6 1173.75 124.6C1167.15 124.6 1162.75 121.8 1162.75 113L1162.55 62.2H1185.75C1186.75 62.2 1187.35 61.6 1187.35 60.6V42.6C1187.35 41.6 1186.75 41 1185.75 41H1162.55L1162.75 16.8C1162.75 15.6 1162.15 15.2 1161.15 15.2H1134.35C1133.35 15.2 1132.75 15.6 1132.75 16.8L1132.95 41ZM1221.09 5.6L1220.69 52.4C1221.33 51.5726 1222.01 50.7824 1222.71 50.0294C1229.78 42.4098 1239.51 38.6 1251.89 38.6C1275.09 38.6 1289.29 52.4 1288.69 82.6V104.6L1289.09 142.4C1289.09 143.6 1288.49 144 1287.49 144H1260.29C1259.29 144 1258.69 143.6 1258.69 142.4L1259.09 105V79C1258.89 66.6 1252.09 60.6 1243.89 60.6C1234.29 60.6 1223.89 68.2 1220.49 82.6L1221.09 142.4C1221.09 143.6 1220.49 144 1219.49 144H1193.09C1192.09 144 1191.49 143.6 1191.49 142.4L1192.09 73.8L1191.49 5.6C1191.49 4.4 1192.09 4 1193.09 4H1219.49C1220.49 4 1221.09 4.4 1221.09 5.6ZM1190.09 73.8176L1189.49 142.383L1189.49 142.391V142.4C1189.49 143.305 1189.71 144.356 1190.57 145.13C1191.38 145.868 1192.38 146 1193.09 146H1219.49C1220.19 146 1221.19 145.868 1222.01 145.13C1222.86 144.356 1223.09 143.305 1223.09 142.4V142.39L1223.09 142.38L1222.49 82.8265C1225.77 69.3152 1235.43 62.6 1243.89 62.6C1247.48 62.6 1250.67 63.9013 1253 66.4893C1255.35 69.0913 1256.99 73.178 1257.09 79.0173L1257.09 104.979L1257.09 105L1256.69 142.389V142.4C1256.69 143.305 1256.91 144.356 1257.77 145.13C1258.58 145.868 1259.58 146 1260.29 146H1287.49C1288.19 146 1289.19 145.868 1290.01 145.13C1290.86 144.356 1291.09 143.305 1291.09 142.4V142.389L1290.69 104.6L1290.69 104.579L1290.69 82.6212C1290.99 67.2439 1287.53 55.6839 1280.71 47.9518C1273.85 40.1808 1263.89 36.6 1251.89 36.6C1239.87 36.6 1230.09 40.083 1222.73 47.1523L1223.09 5.61709L1223.09 5.60855V5.6C1223.09 4.69465 1222.86 3.64362 1222.01 2.87014C1221.19 2.13183 1220.19 2 1219.49 2H1193.09C1192.38 2 1191.38 2.13183 1190.57 2.87014C1189.71 3.64362 1189.49 4.69465 1189.49 5.6V5.6088L1189.49 5.6176L1190.09 73.7825V73.8176ZM1366.21 110.6C1366.61 109.6 1367.21 109.2 1368.01 109.2H1393.81C1394.81 109.2 1395.41 109.8 1395.21 110.8C1392.81 129.8 1374.81 146.6 1345.81 146.6C1311.41 146.6 1292.81 124 1292.81 92.8C1292.81 60 1312.41 38.4 1345.21 38.4C1379.01 38.4 1397.81 61 1398.41 97C1398.41 98 1397.81 98.6 1396.81 98.6H1323.01C1323.05 99.2799 1323.1 99.9465 1323.16 100.6C1324.75 118.592 1332.31 126.6 1346.21 126.6C1356.41 126.6 1363.61 122 1366.21 110.6ZM1325.16 100.6H1396.81C1397.71 100.6 1398.66 100.322 1399.4 99.5892C1400.13 98.8566 1400.41 97.901 1400.41 97V96.9833L1400.41 96.9667C1400.1 78.6462 1395.16 63.4825 1385.75 52.8731C1376.31 42.2259 1362.58 36.4 1345.21 36.4C1328.35 36.4 1314.69 41.9621 1305.25 51.9245C1295.83 61.8731 1290.81 76.0054 1290.81 92.8C1290.81 108.79 1295.58 122.769 1304.95 132.768C1314.34 142.786 1328.15 148.6 1345.81 148.6C1375.56 148.6 1394.6 131.289 1397.18 111.111C1397.35 110.167 1397.19 109.109 1396.44 108.28C1395.7 107.465 1394.68 107.2 1393.81 107.2H1368.01C1367.25 107.2 1366.46 107.397 1365.76 107.925C1365.08 108.435 1364.64 109.133 1364.35 109.857L1364.29 110.003L1364.26 110.155C1363.03 115.515 1360.79 119.055 1357.85 121.281C1354.9 123.517 1351.01 124.6 1346.21 124.6C1339.43 124.6 1334.56 122.598 1331.19 118.587C1328 114.799 1325.93 108.967 1325.16 100.6ZM100.2 218.4C100.2 248.529 76.8573 260.119 57.3258 269.816C43.277 276.792 31.2 282.788 31.2 294V296.4H98.6001C99.6001 296.4 100.2 297 100.2 298V317.4C100.2 318.4 99.6001 319 98.6001 319H4.40005C3.40005 319 2.80005 318.4 2.80005 317.4V299.4C2.80005 267.068 26.0323 255.216 45.5744 245.246C59.7594 238.01 72.0001 231.765 72.0001 219.4C72.6001 206 65.4001 198 52.4001 198.2C39.8001 198.4 31.8001 207.6 31.4 224.8C31.4 225.8 30.8001 226.4 29.8 226.4H5.20005C4.20005 226.4 3.60005 225.8 3.60005 224.8C3.60005 194.2 20 176.6 52.4001 176.4C83.6001 176.4 99.4 192.2 100.2 218.4ZM33.4 224.827C33.3944 225.72 33.1146 226.664 32.3893 227.389C31.6566 228.122 30.7011 228.4 29.8 228.4H5.20005C4.29903 228.4 3.34345 228.122 2.61083 227.389C1.87821 226.657 1.60005 225.701 1.60005 224.8C1.60005 209.156 5.79636 196.531 14.4272 187.794C23.0606 179.055 35.8388 174.502 52.3877 174.4L52.4001 174.4C68.32 174.4 80.614 178.433 89.0452 186.095C97.4952 193.774 101.787 204.846 102.199 218.339L102.2 218.369V218.4C102.2 231.853 97.6991 241.841 90.9265 249.611C84.2065 257.321 75.3101 262.779 66.6312 267.345C63.7046 268.885 60.8301 270.311 58.0632 271.685C52.4832 274.454 47.3404 277.007 43.0879 279.832C36.7844 284.019 33.2001 288.333 33.2001 294V294.4H98.6001C99.5011 294.4 100.457 294.678 101.189 295.411C101.922 296.143 102.2 297.099 102.2 298V317.4C102.2 318.301 101.922 319.257 101.189 319.989C100.457 320.722 99.5011 321 98.6001 321H4.40005C3.49903 321 2.54345 320.722 1.81083 319.989C1.07821 319.257 0.800049 318.301 0.800049 317.4V299.4C0.800049 284.986 5.28677 274.396 12.0734 266.217C18.8122 258.095 27.7395 252.448 36.4491 247.741C39.3086 246.195 42.1168 244.763 44.8231 243.383C50.5016 240.487 55.7315 237.819 60.0445 234.815C66.3136 230.448 70.0001 225.785 70.0001 219.4V219.355L70.0021 219.311C70.286 212.97 68.7152 208.2 65.8266 205.052C62.9543 201.923 58.5115 200.106 52.4318 200.2M33.4 224.827C33.5963 216.51 35.6257 210.4 38.8791 206.384C42.0898 202.42 46.6552 200.292 52.4318 200.2M236.533 246.771L236.529 246.75C235.784 242.557 234.202 239.407 231.585 237.276C228.957 235.135 225.013 233.8 219.098 233.8C214.386 233.8 210.878 234.676 208.593 236.323C206.426 237.884 205.098 240.329 205.098 244.2C205.098 245.956 205.802 247.227 207.212 248.309C208.724 249.469 211.034 250.387 214.111 251.149C217.158 251.904 220.751 252.461 224.703 253.016C225.508 253.129 226.328 253.242 227.159 253.357C230.374 253.8 233.761 254.268 237.141 254.854C245.616 256.326 254.431 258.603 261.143 263.479C267.997 268.458 272.499 276.032 272.499 287.6C272.499 299.132 267.009 308.181 257.856 314.266C248.776 320.301 236.149 323.4 221.698 323.4C206.271 323.4 193.612 320.311 184.652 314.038C175.603 307.705 170.52 298.255 170.1 286.069L170.098 286.034V286C170.098 285.099 170.377 284.143 171.109 283.411C171.842 282.678 172.797 282.4 173.698 282.4H199.698C200.6 282.4 201.555 282.678 202.288 283.411C203.004 284.127 203.286 285.056 203.298 285.939C203.582 291.26 205.43 294.826 208.581 297.137C211.838 299.525 216.789 300.8 223.698 300.8C229.384 300.8 233.47 299.684 236.077 297.861C238.585 296.108 239.898 293.588 239.898 290.2C239.898 288.442 239.192 287.149 237.771 286.038C236.253 284.852 233.938 283.901 230.862 283.098C227.814 282.302 224.221 281.699 220.271 281.096C219.415 280.965 218.542 280.834 217.656 280.702C214.49 280.227 211.159 279.728 207.837 279.117C199.364 277.558 190.557 275.21 183.853 270.329C177.008 265.347 172.498 257.829 172.498 246.4C172.498 235.087 177.085 226.264 185.415 220.345C193.652 214.491 205.367 211.6 219.498 211.6C233.327 211.6 245.065 214.34 253.634 220.062C262.258 225.82 267.514 234.498 268.484 245.939C268.638 246.87 268.469 247.906 267.728 248.72C266.988 249.535 265.971 249.8 265.098 249.8H240.098C239.361 249.8 238.432 249.656 237.661 248.962C236.929 248.303 236.666 247.434 236.537 246.792L236.533 246.771ZM266.498 246.2C264.698 224.4 246.698 213.6 219.498 213.6C191.698 213.6 174.498 225 174.498 246.4C174.498 272.213 198.563 275.819 217.933 278.721C230.981 280.676 241.898 282.311 241.898 290.2C241.898 298.2 235.498 302.8 223.698 302.8C209.498 302.8 201.898 297.6 201.298 286C201.298 285 200.698 284.4 199.698 284.4H173.698C172.698 284.4 172.098 285 172.098 286C172.898 309.2 191.298 321.4 221.698 321.4C250.098 321.4 270.499 309.2 270.499 287.6C270.499 261.356 246.301 258.017 226.903 255.341C213.927 253.55 203.098 252.056 203.098 244.2C203.098 235.4 209.298 231.8 219.098 231.8C231.498 231.8 236.898 237.4 238.498 246.4C238.698 247.4 239.098 247.8 240.098 247.8H265.098C266.098 247.8 266.698 247.2 266.498 246.2ZM279.773 191.808V191.8C279.773 190.895 280.002 189.844 280.853 189.07C281.665 188.332 282.665 188.2 283.373 188.2H310.173C310.882 188.2 311.882 188.332 312.694 189.07C313.545 189.844 313.773 190.895 313.773 191.8V191.808L313.59 214H334.773C335.675 214 336.63 214.278 337.363 215.011C338.095 215.743 338.374 216.699 338.374 217.6V235.6C338.374 236.501 338.095 237.457 337.363 238.189C336.63 238.922 335.675 239.2 334.773 239.2H313.581L313.773 287.992L313.774 288C313.773 292.094 314.795 294.359 316.164 295.639C317.559 296.943 319.708 297.6 322.773 297.6C327.314 297.6 330.915 296.85 333.807 296.081C334.737 295.786 335.922 295.724 336.923 296.475C337.92 297.222 338.173 298.358 338.173 299.2V315.6C338.173 316.896 337.507 318.777 335.546 319.317C329.466 321.34 322.657 323 315.773 323C306.771 323 297.775 320.727 290.989 315.229C284.136 309.676 279.773 301.022 279.773 288.8V288.792L279.966 239.2H270.173C269.272 239.2 268.317 238.922 267.584 238.189C266.852 237.457 266.573 236.501 266.573 235.6V217.6C266.573 216.699 266.852 215.743 267.584 215.011C268.317 214.278 269.272 214 270.173 214H279.957L279.773 191.808ZM281.773 191.8C281.773 190.6 282.373 190.2 283.373 190.2H310.173C311.173 190.2 311.773 190.6 311.773 191.8L311.573 216H334.773C335.773 216 336.374 216.6 336.374 217.6V235.6C336.374 236.6 335.773 237.2 334.773 237.2H311.573L311.773 288C311.773 296.8 316.173 299.6 322.773 299.6C327.574 299.6 331.373 298.8 334.373 298C335.573 297.6 336.173 298.2 336.173 299.2V315.6C336.173 316.4 335.773 317.2 334.973 317.4C328.973 319.4 322.374 321 315.773 321C298.374 321 281.773 312.2 281.773 288.8L281.973 237.2H270.173C269.173 237.2 268.573 236.6 268.573 235.6V217.6C268.573 216.6 269.173 216 270.173 216H281.973L281.773 191.8ZM508.991 265.941C508.374 265.439 507.608 265.2 506.833 265.2H479.633C478.895 265.2 477.966 265.344 477.195 266.038C476.463 266.697 476.2 267.566 476.072 268.208L476.07 268.216C474.219 277.667 470.809 284.712 465.683 289.399C460.588 294.059 453.563 296.6 444.033 296.6C432.695 296.6 423.961 292.344 418.001 284.491C411.983 276.561 408.633 264.747 408.633 249.4C408.633 234.042 411.888 222.02 417.892 213.888C423.833 205.842 432.612 201.4 444.233 201.4C452.974 201.4 459.845 203.699 464.965 207.897C470.09 212.098 473.652 218.359 475.48 226.631L475.515 226.791L475.576 226.943C475.866 227.667 476.303 228.365 476.983 228.875C477.687 229.403 478.479 229.6 479.233 229.6H505.833C506.709 229.6 507.769 229.33 508.519 228.43C509.268 227.532 509.364 226.419 509.206 225.471L509.198 225.426L509.189 225.382C505.107 206.301 496.782 193.371 485.421 185.248C474.094 177.15 459.987 174 444.633 174C423.056 174 405.153 181.426 392.652 194.704C380.162 207.969 373.233 226.895 373.233 249.6C373.233 271.315 380.017 289.936 392.452 303.146C404.899 316.37 422.85 324 444.833 324C461.518 324 475.903 320.286 487.138 311.527C497.534 303.422 505.019 291.165 509.225 274.092C510.326 287.452 514.992 299.104 523.111 307.768C532.5 317.786 546.313 323.6 563.97 323.6C593.729 323.6 612.765 306.289 615.347 286.111C615.516 285.167 615.354 284.109 614.6 283.28C613.859 282.465 612.843 282.2 611.97 282.2H586.17C585.417 282.2 584.625 282.397 583.92 282.925C583.241 283.435 582.803 284.133 582.513 284.857L582.455 285.003L582.42 285.155C581.198 290.515 578.951 294.055 576.013 296.281C573.06 298.517 569.179 299.6 564.37 299.6C557.596 299.6 552.726 297.598 549.351 293.587C546.163 289.799 544.09 283.967 543.328 275.6H614.97C615.871 275.6 616.827 275.322 617.56 274.589C618.292 273.857 618.57 272.901 618.57 272V271.983L618.57 271.967C618.265 253.646 613.324 238.483 603.917 227.873C594.476 217.226 580.743 211.4 563.37 211.4C546.516 211.4 532.857 216.962 523.418 226.925C514.343 236.504 509.349 249.962 508.991 265.941ZM541.32 275.6C541.262 274.947 541.212 274.28 541.17 273.6H614.97C615.97 273.6 616.57 273 616.57 272C615.97 236 597.17 213.4 563.37 213.4C530.57 213.4 510.97 235 510.97 267.8C510.97 299 529.57 321.6 563.97 321.6C592.97 321.6 610.97 304.8 613.37 285.8C613.57 284.8 612.97 284.2 611.97 284.2H586.17C585.37 284.2 584.77 284.6 584.37 285.6C581.77 297 574.57 301.6 564.37 301.6C550.475 301.6 542.911 293.592 541.32 275.6ZM689.369 317.4L689.769 275.2V254C689.769 242.8 683.169 235.6 674.169 235.6C663.369 235.6 651.769 245.6 651.769 267.6V275.2L652.169 317.4C652.169 318.6 651.569 319 650.569 319H622.969C621.969 319 621.369 318.6 621.369 317.4L621.769 269.6V217.6C621.769 216.6 622.369 216 623.369 216H649.169C650.169 216 650.769 216.4 650.769 217.6L650.169 229C650.837 228.141 651.549 227.305 652.303 226.496C659.446 218.836 670.344 213.6 683.369 213.6C705.169 213.6 719.369 228.4 719.369 253.6V275.2L719.769 317.4C719.769 318.6 719.169 319 718.169 319H690.969C689.969 319 689.369 318.6 689.369 317.4ZM721.369 275.181L721.369 275.2L721.769 317.381L721.769 317.391V317.4C721.769 318.305 721.54 319.356 720.689 320.13C719.877 320.868 718.877 321 718.169 321H690.969C690.26 321 689.261 320.868 688.448 320.13C687.598 319.356 687.369 318.305 687.369 317.4V317.391L687.369 317.381L687.769 275.2L687.769 275.181L687.769 254C687.769 248.787 686.236 244.681 683.833 241.91C681.446 239.158 678.102 237.6 674.169 237.6C664.847 237.6 653.769 246.289 653.769 267.6L653.769 275.181L653.769 275.2L654.169 317.381L654.169 317.391V317.4C654.169 318.305 653.94 319.356 653.089 320.13C652.277 320.868 651.277 321 650.569 321H622.969C622.26 321 621.261 320.868 620.448 320.13C619.598 319.356 619.369 318.305 619.369 317.4V317.392L619.369 317.383L619.769 269.6L619.769 269.583L619.769 217.6C619.769 216.699 620.047 215.743 620.78 215.011C621.512 214.278 622.468 214 623.369 214H649.169C649.877 214 650.877 214.132 651.689 214.87C652.54 215.644 652.769 216.695 652.769 217.6V217.653L652.461 223.492C659.961 216.331 670.737 211.6 683.369 211.6C694.74 211.6 704.308 215.474 711.019 222.799C714.02 226.076 716.412 230.001 718.136 234.503V217.6C718.136 216.699 718.414 215.743 719.147 215.011C719.879 214.278 720.835 214 721.736 214H731.519L731.336 191.808V191.8C731.336 190.895 731.565 189.844 732.416 189.07C733.228 188.332 734.227 188.2 734.936 188.2H761.736C762.444 188.2 763.444 188.332 764.256 189.07C765.107 189.844 765.336 190.895 765.336 191.8V191.808L765.153 214H786.336C787.237 214 788.193 214.278 788.925 215.011C789.152 215.237 789.335 215.485 789.48 215.747C789.641 215.433 789.86 215.135 790.152 214.87C790.964 214.132 791.963 214 792.672 214H819.872C820.58 214 821.58 214.132 822.392 214.87C823.243 215.644 823.472 216.695 823.472 217.6V217.609L823.472 217.619L823.072 259.8L823.072 259.819L823.072 281C823.072 286.213 824.605 290.319 827.008 293.09C829.395 295.842 832.739 297.4 836.672 297.4C845.993 297.4 857.072 288.711 857.072 267.4L857.072 259.819L857.072 259.8L856.672 217.619L856.672 217.609V217.6C856.672 216.695 856.901 215.644 857.752 214.87C858.564 214.132 859.563 214 860.272 214H887.872C888.58 214 889.58 214.132 890.392 214.87C891.243 215.644 891.472 216.695 891.472 217.6V217.608L891.472 217.617L891.072 265.4L891.072 265.417L891.072 317.4C891.072 318.301 890.794 319.257 890.061 319.989C889.328 320.722 888.373 321 887.472 321H861.672C860.963 321 859.964 320.868 859.152 320.13C858.301 319.356 858.072 318.305 858.072 317.4V317.347L858.379 311.508C850.88 318.669 840.104 323.4 827.472 323.4C816.1 323.4 806.532 319.526 799.822 312.201C793.129 304.895 789.472 294.367 789.472 281.4L789.472 259.819L789.472 259.8L789.263 237.794C789.163 237.931 789.051 238.063 788.925 238.189C788.193 238.922 787.237 239.2 786.336 239.2H765.144L765.336 287.992V288C765.336 292.094 766.358 294.359 767.727 295.639C769.121 296.943 771.27 297.6 774.336 297.6C778.876 297.6 782.477 296.85 785.37 296.081C786.299 295.786 787.484 295.724 788.486 296.475C789.482 297.222 789.736 298.358 789.736 299.2V315.6C789.736 316.896 789.07 318.777 787.109 319.317C781.029 321.34 774.219 323 767.336 323C758.333 323 749.338 320.727 742.552 315.229C735.698 309.676 731.336 301.022 731.336 288.8V288.792L731.528 239.2H721.736C720.948 239.2 720.119 238.988 719.434 238.445C720.708 243.016 721.369 248.087 721.369 253.6L721.369 275.181ZM733.536 237.2L733.336 288.8C733.336 312.2 749.936 321 767.336 321C773.936 321 780.536 319.4 786.536 317.4C787.336 317.2 787.736 316.4 787.736 315.6V299.2C787.736 298.2 787.136 297.6 785.936 298C782.936 298.8 779.136 299.6 774.336 299.6C767.736 299.6 763.336 296.8 763.336 288L763.136 237.2H786.336C787.336 237.2 787.936 236.6 787.936 235.6V217.6C787.936 216.6 787.336 216 786.336 216H763.136L763.336 191.8C763.336 190.6 762.736 190.2 761.736 190.2H734.936C733.936 190.2 733.336 190.6 733.336 191.8L733.536 216H721.736C720.736 216 720.136 216.6 720.136 217.6V235.6C720.136 236.6 720.736 237.2 721.736 237.2H733.536ZM791.472 259.8V281.4C791.472 306.6 805.672 321.4 827.472 321.4C840.497 321.4 851.395 316.164 858.537 308.504C859.291 307.695 860.004 306.859 860.672 306L860.072 317.4C860.072 318.6 860.672 319 861.672 319H887.472C888.472 319 889.072 318.4 889.072 317.4V265.4L889.472 217.6C889.472 216.4 888.872 216 887.872 216H860.272C859.272 216 858.672 216.4 858.672 217.6L859.072 259.8V267.4C859.072 289.4 847.472 299.4 836.672 299.4C827.672 299.4 821.072 292.2 821.072 281V259.8L821.472 217.6C821.472 216.4 820.872 216 819.872 216H792.672C791.672 216 791.072 216.4 791.072 217.6L791.472 259.8ZM966.803 240L966.64 239.973C965.637 239.806 964.22 239.8 962.969 239.8C952.724 239.8 944.048 242.65 937.957 248.136C931.899 253.594 928.169 261.865 928.169 273.2V317.4C928.169 318.301 927.891 319.257 927.158 319.989C926.425 320.722 925.47 321 924.569 321H897.969C897.26 321 896.261 320.868 895.448 320.13C894.598 319.356 894.369 318.305 894.369 317.4V317.388L894.369 317.376L894.969 267.424V267.376L894.369 217.624L894.369 217.612V217.6C894.369 216.695 894.598 215.644 895.448 214.87C896.261 214.132 897.26 214 897.969 214H924.569C925.277 214 926.277 214.132 927.089 214.87C927.94 215.644 928.169 216.695 928.169 217.6V217.651L927.687 227.174C936.322 217.766 948.874 213.2 962.169 213.2C963.852 213.2 965.734 213.401 967.453 213.811C968.119 213.861 968.719 214.09 969.212 214.463C969.798 214.126 970.466 214 971.07 214H1001.47C1002.76 214 1004.64 214.663 1005.18 216.612L1025.69 275.404L1042.53 216.915C1042.53 216.902 1042.54 216.889 1042.54 216.877C1042.98 215.183 1044.59 214 1046.27 214H1073.27C1074.28 214 1075.32 214.403 1076.02 215.233C1076.77 216.116 1076.99 217.326 1076.55 218.488L1030.59 352.382C1030.04 354.336 1028.16 355 1026.87 355H1001.67C1000.66 355 999.621 354.597 998.919 353.767C998.171 352.884 997.948 351.673 998.393 350.51L1008.94 320.053L970.569 224.882V236.4C970.569 237.301 970.291 238.257 969.558 238.989C968.825 239.722 967.87 240 966.969 240H966.803ZM968.569 217.4C968.569 216.84 968.373 216.281 967.913 215.995C967.716 215.872 967.469 215.8 967.169 215.8C965.569 215.4 963.769 215.2 962.169 215.2C948.438 215.2 935.713 220.228 927.521 230.436C926.764 231.38 926.046 232.368 925.369 233.4L926.169 217.6C926.169 216.4 925.569 216 924.569 216H897.969C896.969 216 896.369 216.4 896.369 217.6L896.969 267.4L896.369 317.4C896.369 318.6 896.969 319 897.969 319H924.569C925.569 319 926.169 318.4 926.169 317.4V273.2C926.169 249.6 941.769 237.8 962.969 237.8C964.169 237.8 965.769 237.8 966.969 238C967.969 238 968.569 237.4 968.569 236.4V217.4ZM1011.07 320L1000.27 351.2C999.87 352.2 1000.67 353 1001.67 353H1026.87C1027.67 353 1028.47 352.6 1028.67 351.8L1074.67 217.8C1075.07 216.8 1074.27 216 1073.27 216H1046.27C1045.47 216 1044.67 216.6 1044.47 217.4L1025.87 282L1003.27 217.2C1003.07 216.4 1002.27 216 1001.47 216H971.07C970.795 216 970.561 216.042 970.37 216.119C969.843 216.332 969.637 216.809 969.751 217.4C969.775 217.529 969.815 217.662 969.87 217.8L1011.07 320ZM106.967 2H134.167C135.068 2 136.024 2.27817 136.756 3.01079C137.489 3.74341 137.767 4.69898 137.767 5.6V29.4C137.767 30.301 137.489 31.2566 136.756 31.9892C136.024 32.7218 135.068 33 134.167 33H106.967C106.066 33 105.111 32.7218 104.378 31.9892C103.645 31.2566 103.367 30.301 103.367 29.4V5.6C103.367 4.69898 103.645 3.7434 104.378 3.01078C105.111 2.27817 106.066 2 106.967 2ZM566.719 59C551.519 58.6 543.719 70 543.719 91.2C543.719 114.4 551.719 126.2 566.119 126C580.719 126 588.519 115 588.719 93.2C588.919 71.2 581.119 59.2 566.719 59ZM758.872 66.0639C755.899 62.5362 751.607 60.2 745.602 60.2C739.923 60.2 735.67 61.8602 732.541 64.9892C729.738 67.7924 727.67 71.9401 726.425 77.6H763.897C763.119 73.2067 761.465 69.1399 758.872 66.0639ZM765.926 77.6C764.221 67.3723 757.998 58.2 745.602 58.2C733.988 58.2 727.087 64.7242 724.38 77.6C724.243 78.2505 724.117 78.9171 724.002 79.6H766.202C766.129 78.9304 766.037 78.263 765.926 77.6ZM941.379 117.378C944.663 122.227 949.578 124.6 956.548 124.6C963.415 124.6 968.166 122.281 971.325 117.455C974.601 112.45 976.349 104.481 976.349 92.8C976.349 81.3382 974.557 73.1992 971.214 67.9785C967.977 62.9235 963.157 60.4033 956.362 60.4C949.342 60.4955 944.47 63.0761 941.235 68.1502C937.892 73.3932 936.148 81.53 936.148 93C936.148 104.459 937.99 112.373 941.379 117.378ZM956.349 58.4C941.148 58.6 934.148 69.8 934.148 93C934.148 116.2 941.548 126.6 956.548 126.6C971.348 126.6 978.349 116.4 978.349 92.8C978.349 69.6 971.148 58.4 956.349 58.4ZM1358.68 66.0639C1355.7 62.5362 1351.41 60.2 1345.41 60.2C1339.73 60.2 1335.47 61.8602 1332.35 64.9892C1329.54 67.7924 1327.47 71.9401 1326.23 77.6H1363.7C1362.92 73.2067 1361.27 69.1399 1358.68 66.0639ZM1365.73 77.6C1364.03 67.3723 1357.8 58.2 1345.41 58.2C1333.79 58.2 1326.89 64.7242 1324.18 77.6C1324.05 78.2505 1323.92 78.9171 1323.81 79.6H1366.01C1365.93 78.9304 1365.84 78.263 1365.73 77.6ZM137.516 177H162.916C163.817 177 164.772 177.278 165.505 178.011C166.238 178.743 166.516 179.699 166.516 180.6V317.4C166.516 318.301 166.238 319.257 165.505 319.989C164.772 320.722 163.817 321 162.916 321H135.716C134.815 321 133.859 320.722 133.126 319.989C132.394 319.257 132.116 318.301 132.116 317.4V217.005C125.061 222.717 116.576 226.915 106.97 229.891C105.984 230.258 104.847 230.223 103.902 229.569C102.945 228.907 102.516 227.835 102.516 226.8V206.8C102.516 206.084 102.693 205.264 103.196 204.537C103.694 203.817 104.438 203.301 105.352 203.077C118.675 198.223 128.213 190.151 133.937 179.285C134.255 178.656 134.712 178.066 135.356 177.636C136.02 177.193 136.766 177 137.516 177ZM135.716 180.2C136.116 179.4 136.716 179 137.516 179H162.916C163.916 179 164.516 179.6 164.516 180.6V317.4C164.516 318.4 163.916 319 162.916 319H135.716C134.716 319 134.116 318.4 134.116 317.4V212.6C133.464 213.216 132.798 213.817 132.116 214.402C125.049 220.468 116.348 224.899 106.316 228C105.316 228.4 104.516 227.8 104.516 226.8V206.8C104.516 206 104.916 205.2 105.916 205C119.716 200 129.716 191.6 135.716 180.2ZM508.233 269.4C508.433 268 507.833 267.2 506.833 267.2H479.633C478.633 267.2 478.233 267.6 478.033 268.6C474.233 288 463.833 298.6 444.033 298.6C420.233 298.6 406.633 280.6 406.633 249.4C406.633 218.2 419.833 199.4 444.233 199.4C462.433 199.4 473.633 209 477.433 226.2C477.833 227.2 478.433 227.6 479.233 227.6H505.833C506.833 227.6 507.433 227 507.233 225.8C499.233 188.4 474.833 176 444.633 176C402.433 176 375.233 205 375.233 249.6C375.233 292.2 401.833 322 444.833 322C477.633 322 500.433 307.4 508.233 269.4ZM576.841 241.064C573.868 237.536 569.576 235.2 563.57 235.2C557.891 235.2 553.639 236.86 550.51 239.989C547.706 242.792 545.639 246.94 544.394 252.6H581.866C581.087 248.207 579.433 244.14 576.841 241.064ZM583.895 252.6C582.19 242.372 575.967 233.2 563.57 233.2C551.957 233.2 545.056 239.724 542.349 252.6C542.212 253.25 542.086 253.917 541.97 254.6H584.17C584.097 253.93 584.006 253.263 583.895 252.6ZM106.967 4H134.167C135.167 4 135.767 4.6 135.767 5.6V29.4C135.767 30.4 135.167 31 134.167 31H106.967C105.967 31 105.367 30.4 105.367 29.4V5.6C105.367 4.6 105.967 4 106.967 4ZM1009.15 92.2C1009.15 125 990.148 146.6 956.548 146.6C922.948 146.6 903.548 125.6 903.548 92.8C903.548 60 922.948 38.4 956.548 38.4C990.148 38.4 1009.15 59.4 1009.15 92.2Z" fill="#E85C5C"/>
</svg>
