<svg width="660" height="402" viewBox="0 0 660 402" fill="none" xmlns="http://www.w3.org/2000/svg">
<path d="M295.305 401.862C267.68 401.862 241.545 392.903 219.144 377.222C200.477 386.18 180.316 390.659 159.409 390.659C111.623 390.659 72.0494 366.763 54.128 328.686C51.1436 327.941 48.154 327.191 45.1696 326.446C22.0243 320.472 5.59631 296.582 1.11764 265.217C-4.11156 227.884 8.58645 179.353 48.159 152.472C53.3882 118.873 68.3203 93.4875 90.7216 80.7942C101.92 74.0754 117.602 69.5963 136.268 68.1015C140.003 49.4348 147.466 36.7415 160.908 26.2895C184.054 8.36818 204.215 6.8775 222.138 21.0603C229.606 15.8311 237.82 11.352 247.523 8.36764C263.206 3.13844 276.643 0.154053 288.591 0.154053C304.274 0.154053 317.711 4.63324 329.659 13.5914C348.326 0.898703 370.727 -1.34063 396.856 7.61737L398.351 8.36216C410.299 6.86736 422.991 8.36216 437.179 11.3466C451.367 15.081 461.819 23.2944 468.539 36.7319C483.471 35.9871 497.659 42.7059 517.07 58.3826C529.762 68.8356 540.966 83.0226 548.43 98.6999C592.482 108.408 622.351 150.965 627.575 187.555C628.32 194.273 628.32 200.247 626.08 206.221C662.668 243.555 664.908 292.836 651.466 325.691C638.773 356.305 612.638 373.477 578.294 373.477C549.919 373.477 519.31 360.785 500.643 341.373C498.403 343.613 496.909 345.108 495.414 346.602C493.174 348.842 490.935 352.576 489.44 354.816C475.252 372.737 459.576 393.644 425.226 393.644C408.8 393.644 390.133 388.415 368.481 379.456C366.242 381.696 363.252 383.19 361.012 384.685C341.6 395.888 318.455 401.863 295.304 401.863L295.305 401.862ZM233.336 369.007C251.257 380.205 272.909 386.928 295.309 386.928C315.471 386.928 334.883 381.699 351.309 372.74C345.335 369.756 338.617 366.022 331.897 362.287C296.059 343.621 270.668 340.637 252.752 340.637C248.268 352.579 241.549 362.287 233.336 369.006V369.007ZM378.936 368.262C396.857 375.731 411.791 379.46 425.228 379.46C452.108 379.46 464.801 363.034 477.493 345.862C479.733 342.877 481.973 339.888 484.212 337.648C485.707 335.408 488.691 333.169 491.681 330.179C488.697 325.7 487.947 321.966 487.947 318.231L486.457 317.486C478.988 315.992 476.749 315.247 472.269 313.752H471.519C456.587 329.435 432.691 333.913 399.836 327.94C393.123 345.861 386.399 359.3 378.935 368.263L378.936 368.262ZM71.3094 328.689C87.736 357.809 120.591 374.981 159.413 374.981C175.84 374.981 191.517 371.997 205.705 366.023C198.987 359.304 192.268 352.585 186.293 344.372C172.856 344.372 161.653 342.877 149.705 339.893C133.279 335.414 117.601 327.945 104.159 316.747C92.2212 323.461 81.7627 327.195 71.3094 328.69V328.689ZM288.589 329.434C305.016 333.168 321.444 339.887 339.36 348.846C348.318 354.075 357.281 357.804 365.496 361.538C372.965 353.325 378.933 341.377 384.908 324.205C378.934 322.71 373.71 321.221 369.225 319.726C355.037 315.247 349.064 302.554 345.329 289.862C316.209 290.607 309.491 300.315 307.251 308.529C303.522 319.726 296.803 326.446 288.589 329.435V329.434ZM205.709 343.622C210.189 349.596 215.418 354.075 220.641 358.554C226.615 354.819 231.839 348.846 236.324 340.632C231.095 340.632 226.616 341.377 222.136 342.127C216.162 342.872 210.938 342.872 205.709 343.622V343.622ZM511.843 330.929C527.525 347.356 554.405 357.809 579.04 357.809C595.467 357.809 624.587 352.58 638.775 318.981C649.973 291.356 648.483 251.033 620.108 218.929C610.4 230.877 593.972 237.596 579.04 239.09L580.535 240.585C605.175 248.054 618.614 259.252 623.098 273.44C628.327 292.107 627.577 306.295 619.363 316.747C611.894 327.2 597.713 331.679 576.801 331.679C561.869 331.679 547.68 329.439 517.816 323.465H518.561C514.827 327.194 513.337 329.434 511.842 330.929L511.843 330.929ZM168.376 266.716C174.35 290.612 183.308 311.518 194.512 328.689C203.47 328.689 211.684 327.944 219.897 327.194C226.616 326.45 234.085 325.7 241.548 325.7C243.043 321.965 243.788 317.486 244.532 313.007C236.319 305.538 229.6 295.835 223.626 285.381C208.694 281.647 196 271.944 184.052 256.262C179.578 259.246 174.349 262.98 168.375 266.715L168.376 266.716ZM116.855 307.033C128.053 315.247 140 321.221 153.443 324.954C160.912 327.194 169.125 327.939 176.588 328.689C167.63 313.757 160.905 295.834 155.681 276.424C147.468 282.398 140.749 288.371 134.031 293.596C128.057 298.075 122.083 302.554 116.853 307.033L116.855 307.033ZM257.228 325.7H261.707C260.212 324.955 259.468 324.205 257.973 323.46L257.228 325.7V325.7ZM526.775 311.512C547.681 315.991 563.363 317.486 576.056 317.486C591.739 317.486 601.441 314.501 605.92 308.527C610.399 302.553 611.149 292.101 606.665 278.663C604.425 270.45 595.467 263.731 579.785 257.757C579.785 261.491 579.04 265.226 577.545 268.955C570.826 284.637 550.665 291.356 531.253 298.075C531.253 302.554 529.758 307.033 526.774 311.512L526.775 311.512ZM403.577 313.751C425.228 317.486 441.656 315.991 452.859 309.272C437.927 305.538 422.244 301.803 408.056 298.819C406.561 304.048 405.066 309.272 403.577 313.751L403.577 313.751ZM260.964 307.033C267.683 312.262 274.401 315.246 280.376 315.246C282.616 315.246 289.334 315.246 293.069 304.048C299.043 286.127 315.47 276.423 341.599 274.928C340.855 274.928 341.599 274.928 340.105 266.715C338.61 257.756 336.37 248.793 334.131 239.835C323.677 233.116 313.969 223.408 304.267 209.971V210.716C294.558 245.065 283.36 269.699 264.693 280.153C263.204 289.861 262.459 298.819 260.964 307.033V307.033ZM62.3507 257.751C57.8715 267.46 54.8819 283.887 63.0955 310.767C63.0955 311.512 63.8403 313.007 63.8403 313.752C72.7987 313.752 81.7616 310.767 92.2149 304.793C81.0171 292.101 70.5643 276.419 62.351 257.752L62.3507 257.751ZM46.6734 173.382C19.7934 197.273 11.58 233.861 16.0587 263.726C19.7931 288.366 31.7414 307.033 48.1627 312.257C36.2148 271.939 47.4179 251.027 55.6315 241.325C48.9127 218.929 45.9232 195.033 46.6731 173.382H46.6734ZM361.02 291.355C364.004 300.314 367.739 304.793 373.713 306.287C377.447 307.782 383.421 309.272 389.395 310.766C390.89 306.287 392.38 301.808 393.875 295.834C381.182 293.595 370.729 292.1 361.02 291.355H361.02ZM508.86 307.777C509.605 307.777 510.355 308.521 511.1 308.521C511.844 307.777 512.594 307.027 512.594 305.537C511.85 306.287 510.355 307.032 508.86 307.777V307.777ZM479.74 301.058C483.474 301.803 487.209 302.553 490.938 304.042C496.167 296.573 506.621 292.094 518.563 288.36C517.819 280.146 513.334 272.677 504.375 264.464C500.641 261.479 496.906 257.745 493.922 254.01C490.188 264.464 487.948 273.422 486.453 280.89C484.969 287.62 482.729 294.338 479.74 301.057L479.74 301.058ZM411.797 283.14C428.969 286.875 446.891 292.099 464.813 296.578C467.798 291.349 470.043 284.63 471.532 277.166C473.027 267.458 476.761 256.259 481.985 241.327L467.797 239.832C455.105 242.817 439.423 246.551 420.756 248.791C419.261 254.765 417.772 260.739 415.527 266.712C411.798 282.389 415.527 266.712 411.798 283.139L411.797 283.14ZM73.5574 245.807C81.0262 265.968 92.224 283.14 105.661 296.578C111.635 292.099 116.859 286.87 124.328 281.646C132.542 274.927 142.995 268.208 150.464 259.995H151.209C148.969 251.037 148.224 241.328 146.73 231.62C144.49 212.954 142.25 195.782 140.011 180.099C130.303 165.167 120.599 156.954 110.147 153.219C104.918 156.954 101.933 160.688 101.933 164.417C101.188 167.401 102.678 170.391 105.668 173.375C131.053 203.99 129.564 224.146 124.334 235.349C119.105 245.802 108.652 251.031 101.189 251.031C96.7098 251.031 92.9754 249.537 90.7359 247.297C86.2515 243.568 79.5276 242.818 73.5586 245.807L73.5574 245.807ZM243.051 286.87C244.546 289.109 246.035 291.349 248.28 293.589C248.28 291.349 249.025 289.109 249.025 286.12C248.28 286.12 249.769 286.12 249.025 286.12C247.53 286.87 243.801 286.87 243.051 286.87H243.051ZM505.131 243.567C507.37 246.552 510.36 249.541 513.344 252.525C524.542 262.234 530.516 271.938 532.756 282.39L534.251 281.645C547.688 277.166 561.131 271.192 564.115 262.978C565.61 259.994 565.61 257.004 564.115 252.525C546.943 248.791 526.036 245.806 505.131 243.567L505.131 243.567ZM356.544 275.671C367.742 276.416 381.184 277.911 396.861 280.9C398.356 275.671 399.846 269.702 401.341 263.728C402.835 259.249 403.58 254.77 405.075 250.291C394.622 251.036 384.168 251.786 373.715 251.786H372.22C364.751 251.786 358.032 251.041 351.314 248.801C352.808 254.031 353.553 259.254 354.298 264.484C355.048 268.203 355.798 271.937 356.543 275.672L356.544 275.671ZM234.836 271.937C237.82 272.682 241.555 272.682 245.289 271.937C246.784 271.937 249.023 271.192 250.518 271.192C252.013 253.271 252.758 231.619 256.492 218.176C245.294 222.655 234.842 227.884 225.132 233.108C225.877 245.806 228.862 259.244 234.835 271.936L234.836 271.937ZM197.503 248.046C203.477 255.515 209.451 261.483 216.169 265.218C213.185 257.004 211.69 248.791 210.94 239.833C205.716 242.817 201.237 245.057 197.503 248.046L197.503 248.046ZM275.159 210.713C269.185 221.166 266.945 240.577 265.45 261.483C275.903 249.536 283.372 228.629 289.346 206.229C284.862 206.979 280.383 208.474 275.158 210.713L275.159 210.713ZM160.169 214.442C160.914 219.671 161.664 224.15 162.409 229.374C163.154 236.843 164.649 243.562 166.143 250.281C169.878 248.041 173.612 245.051 176.596 242.812C169.878 234.604 164.649 224.15 160.17 214.442L160.169 214.442ZM346.089 230.869C354.303 235.348 363.261 237.587 372.225 237.587H372.97C384.918 237.587 396.866 235.348 408.809 233.853C408.809 233.108 409.554 230.119 409.554 230.119V231.613C392.382 228.629 380.434 224.895 372.966 219.666C360.273 211.452 360.273 196.52 362.513 184.572C347.581 187.557 333.393 191.291 319.95 195.77C334.893 204.739 341.611 219.671 346.09 230.869L346.089 230.869ZM154.943 175.618C160.917 185.326 166.891 195.779 172.115 206.233C177.344 215.941 182.568 226.394 188.541 236.097C195.26 231.617 202.729 227.883 209.448 224.149C210.193 203.242 216.917 184.575 228.86 162.175H228.115C216.167 159.936 208.703 153.962 204.97 145.003C202.73 138.285 199.741 131.566 198.251 125.591C181.079 128.576 164.652 131.565 149.72 136.044C151.955 146.498 153.45 159.935 154.944 175.618L154.943 175.618ZM98.1934 234.602C98.9382 234.602 100.433 235.347 101.178 235.347C104.162 235.347 108.647 233.107 110.886 228.628C113.126 224.149 116.115 209.961 93.714 183.081C88.4848 176.362 86.2452 169.644 86.9952 162.175C87.74 158.44 89.2348 155.456 91.4744 151.722C87.74 152.466 84.0056 153.216 79.5266 154.706C73.5526 156.945 67.5787 159.185 62.3546 162.175C60.115 184.576 62.3546 208.467 69.0734 231.612C79.5264 227.133 91.4747 228.628 99.688 235.346L98.1934 234.602ZM513.34 229.378C523.048 230.873 533.501 231.618 542.46 233.112C540.22 231.618 538.726 229.378 537.231 227.883C530.512 227.138 521.554 227.883 513.34 229.378H513.34ZM564.111 225.644C578.299 227.138 598.46 221.909 607.417 209.961C594.725 198.763 579.043 190.549 560.376 183.825C558.137 194.278 555.147 203.237 550.668 210.705C549.923 212.2 548.428 214.439 548.428 215.934C554.402 217.429 559.631 221.163 564.111 225.642L564.111 225.644ZM428.964 220.414C441.657 221.909 455.1 223.399 467.043 224.894C470.027 224.149 473.017 223.399 476.001 222.654C470.772 208.466 467.788 192.039 466.293 171.133C460.319 171.133 453.6 171.877 447.626 171.877C440.913 185.32 434.939 201.003 428.965 220.413L428.964 220.414ZM481.229 171.138C482.724 190.55 485.709 206.232 490.938 218.925H491.682L494.667 212.951C500.641 199.514 506.615 186.071 511.094 173.378C501.39 171.883 491.682 171.138 481.23 171.138L481.229 171.138ZM378.937 181.591C373.708 202.498 379.682 206.231 381.177 207.727C387.151 211.462 398.349 215.196 414.032 218.18C419.261 201.008 424.485 186.076 430.458 173.378C414.032 175.617 396.854 177.857 378.937 181.591H378.937ZM246.776 162.925C234.828 179.351 227.364 197.274 225.125 215.19C237.818 209.216 251.261 203.242 265.443 198.018C271.417 190.549 278.88 186.82 288.588 186.82C284.109 178.607 279.63 169.648 275.151 159.195C264.698 161.429 254.989 162.924 246.776 162.924V162.925ZM526.029 174.867C521.55 187.56 515.576 201.747 509.603 215.185C516.322 213.69 523.791 212.945 530.509 212.945L534.244 212.2C534.989 209.216 535.739 206.226 537.978 202.492C541.713 195.773 544.697 187.56 546.192 178.596C540.218 177.106 532.749 175.617 526.03 174.867L526.029 174.867ZM562.613 168.149C582.025 174.123 598.452 183.081 612.64 194.285V189.805C608.161 161.431 586.504 128.576 555.895 116.633C561.124 133.805 563.364 150.977 562.614 168.149L562.613 168.149ZM310.987 183.081C328.908 177.851 347.575 173.372 366.987 168.893C371.466 156.2 377.44 142.013 384.159 127.081C375.945 129.32 366.987 132.31 358.773 135.294C345.336 139.773 331.893 143.508 318.456 147.987C316.961 154.706 315.472 160.68 313.977 167.399C313.227 172.628 311.732 177.857 310.987 183.082L310.987 183.081ZM290.825 155.455C293.81 161.429 296.055 166.653 298.294 171.882C299.039 168.898 299.789 166.653 299.789 163.668C300.534 159.934 301.284 156.2 302.029 152.47C298.294 153.215 294.56 154.71 290.826 155.455L290.825 155.455ZM403.575 121.857C402.08 125.591 400.59 128.575 399.096 132.31C393.866 144.258 388.642 155.455 384.164 165.908C402.83 162.174 420.752 159.934 437.924 158.44H437.179C445.392 144.252 455.845 133.054 463.315 124.09V123.345C463.315 118.116 464.06 113.637 464.06 108.413C445.388 109.908 422.986 115.882 403.576 121.856L403.575 121.857ZM530.507 159.935C536.481 160.68 542.455 162.175 548.428 163.67C549.173 146.498 545.444 128.576 538.72 112.148C534.241 111.404 529.761 111.404 525.282 112.148C535.73 127.08 533.491 147.242 530.506 159.935L530.507 159.935ZM480.48 156.201C492.428 156.201 504.376 156.946 514.829 158.44C521.548 132.304 514.829 121.852 507.361 115.878C498.402 118.862 488.694 124.091 479.735 130.81C480.48 139.029 480.48 147.242 480.48 156.2V156.201ZM465.548 144.258C462.564 147.993 459.574 151.727 456.59 156.206H465.548V144.258ZM125.815 144.258C130.294 146.498 134.028 149.487 137.013 153.217C136.268 148.737 136.268 144.258 135.518 140.524C132.533 142.019 129.549 142.764 125.815 144.258V144.258ZM213.919 123.352C215.414 128.581 217.653 133.805 219.893 139.778C220.638 142.018 222.877 147.992 239.305 148.737C246.024 140.523 253.493 133.054 261.706 126.335L260.211 122.601C249.013 120.361 232.586 121.106 213.919 123.351L213.919 123.352ZM267.679 140.524C265.439 142.763 263.2 145.003 260.96 146.498C263.944 145.753 266.189 145.753 269.174 145.003C267.679 140.524 268.423 142.018 267.679 140.524V140.524ZM134.025 83.7742C118.343 85.269 106.4 88.2534 97.4374 94.2272C81.7547 103.186 70.5574 121.107 64.5827 144.254C67.5671 142.759 71.3015 142.014 74.291 140.52C86.2388 136.785 96.6923 136.04 106.395 137.535H107.14C114.609 133.056 119.832 129.322 134.765 125.587C134.026 108.415 133.276 94.9779 134.026 83.7753L134.025 83.7742ZM279.625 130.072C281.12 133.806 282.61 138.285 284.855 142.019C291.573 140.525 299.043 138.285 307.256 136.045C315.47 103.941 325.177 71.0867 340.855 46.4467C337.12 41.2175 333.386 36.7384 329.657 33.0094C322.938 38.9834 317.709 45.702 311.735 52.4214C302.777 63.6192 293.814 74.072 281.871 79.3014C276.642 81.541 269.179 83.7806 260.965 84.5306C263.949 91.9994 267.683 100.213 270.673 107.676C275.152 109.171 281.126 111.41 283.366 117.384C284.105 121.858 282.61 126.337 279.626 130.072L279.625 130.072ZM349.063 60.6288C337.865 80.0408 329.651 105.432 322.927 130.817C333.38 127.832 343.833 124.098 354.287 121.109C366.979 117.374 379.672 112.895 392.365 109.161C398.339 96.468 403.563 83.0247 407.297 71.0821C402.818 73.3217 399.829 75.5613 396.844 77.0561C389.376 81.5353 384.152 84.5248 377.432 84.5248C366.984 84.5248 358.771 76.3112 349.063 60.6288H349.063ZM149.703 82.2849C148.958 91.9931 148.958 104.686 149.703 120.364C163.891 116.629 179.567 112.895 195.249 110.655C193.01 100.947 192.265 91.9886 192.265 83.7753C178.077 83.0305 163.145 82.2856 149.702 82.2856L149.703 82.2849ZM479.729 107.67V112.899C481.969 111.405 484.959 109.915 487.198 108.42C484.959 107.67 482.719 107.67 479.729 107.67ZM207.196 84.5248C207.196 91.9936 208.691 99.4568 210.18 108.421C226.607 106.181 242.284 105.436 254.232 106.181C251.248 99.4624 249.003 92.7439 246.019 86.0199C233.331 86.7647 220.634 86.0199 207.196 84.5251L207.196 84.5248ZM424.476 63.6182C422.236 76.3109 417.007 89.7542 411.039 103.936C433.44 97.9615 450.612 94.2273 464.055 92.7377C463.31 79.3003 462.56 64.363 458.826 52.4203C452.852 53.9151 445.388 56.1547 436.424 59.1391C431.94 61.3787 428.955 62.1235 424.476 63.6183L424.476 63.6182ZM479.727 92.7382C483.461 92.7382 487.196 93.483 490.925 94.233C498.393 95.7278 504.362 97.9674 509.591 100.207C516.31 98.7122 523.029 97.9674 530.498 97.2226C524.524 86.7695 516.31 77.8106 507.353 70.3426C491.67 57.6499 482.713 53.1706 474.498 52.4212C477.488 64.3639 478.982 78.5519 479.727 92.7386L479.727 92.7382ZM207.94 70.3369C219.138 71.0816 229.591 71.8316 238.555 71.8316C232.581 59.139 226.607 49.4303 220.633 41.9677C213.915 49.4313 209.436 58.389 207.941 70.337L207.94 70.3369ZM232.58 31.5089C240.049 40.4673 247.512 53.1595 254.981 70.3369C263.94 69.5921 270.664 68.0972 275.888 65.8576C284.102 62.1232 292.315 52.4203 300.528 42.7123C305.757 35.9935 311.726 29.275 317.7 23.3003C308.742 18.0711 299.033 15.0867 288.58 15.0867C278.127 15.0867 266.929 17.3263 252.741 22.5555C244.528 24.7899 237.809 28.5243 232.58 31.5086V31.5089ZM358.023 47.1915C363.997 56.8998 372.211 69.5928 376.689 69.5928C378.929 69.5928 383.408 67.3532 388.637 64.3636C394.611 61.3792 401.33 56.8948 410.288 53.1658C411.783 33.7538 403.569 27.0298 395.356 23.3018C381.913 25.5362 369.22 33.7496 358.023 47.1924L358.023 47.1915ZM192.263 68.8422C194.502 53.9102 200.476 41.2168 210.184 30.7635C198.236 22.5499 185.544 24.7895 169.867 37.4823C160.158 44.9511 154.935 53.909 151.945 67.3463C164.633 67.3515 179.571 68.0963 192.263 68.8411V68.8422ZM419.249 22.5502C423.729 29.269 425.968 37.4822 425.968 47.1902H426.718L431.947 45.6954C439.416 42.711 446.135 40.4662 452.854 38.9766C448.375 32.2578 441.656 27.7787 433.442 25.5392C428.213 24.0444 423.728 23.2944 419.249 22.5496L419.249 22.5502ZM349.812 33.0032C356.531 27.0292 362.505 21.0554 369.973 17.3206C359.52 16.5758 349.812 18.8154 341.599 24.0394C343.838 27.029 346.823 30.0186 349.812 33.003L349.812 33.0032Z" fill="black"/>
</svg>
