<svg width="443" height="438" viewBox="0 0 443 438" fill="none" xmlns="http://www.w3.org/2000/svg">
<path fill-rule="evenodd" clip-rule="evenodd" d="M296.498 328.548C291.977 342.403 286.704 355.052 280.842 366.239C275.78 375.9 270.486 384.132 265.079 391.02C236.787 399.821 207.091 401.644 178.768 396.265C171.679 387.943 164.815 377.227 158.473 363.918C153.724 353.952 149.466 342.886 145.802 330.895L296.498 328.548ZM315.466 328.252C309.686 347.208 302.548 364.349 294.34 379.128C317.398 367.417 338.714 350.66 356.552 328.994C356.935 328.529 357.316 328.062 357.694 327.594L315.466 328.252ZM370.155 310.398L320.179 311.177C326.549 285.54 330.542 257.176 331.554 227.243H399.866C396.766 255.838 386.958 284.401 370.155 310.398ZM330.784 182.345C331.415 191.468 331.761 200.78 331.803 210.243H400.922C401.016 204.268 400.818 198.314 400.331 192.403C396.049 191.295 391.144 190.183 385.548 189.083C372.273 186.475 353.245 184.302 330.784 182.345ZM329.233 165.148C327.953 153.668 326.214 142.546 324.054 131.863L383.91 131.31C390.448 144.933 395.13 159.403 397.91 174.324C395.049 173.671 392.023 173.031 388.826 172.403C374.167 169.522 353.306 167.198 329.233 165.148ZM417.029 179.668C410.712 134.431 388.728 92.1058 351.677 61.6011C328.876 42.8287 302.777 30.5159 275.445 24.4011C260.915 9.11764 244.322 0.346515 226.581 0.0100524C205.798 -0.384115 186.149 10.8491 169.225 30.677C133.673 42.8105 100.524 65.0209 74.4268 96.719C67.0868 105.634 60.5905 114.953 54.9308 124.571C53.3817 125.616 51.9976 126.699 50.8046 127.828C47.6467 130.816 44.3102 135.699 45.7658 141.854L45.7774 141.903C35.6237 163.486 29.3992 186.192 27.032 208.954C19.0165 210.471 10.3007 214.576 4.90297 223.49C-2.83216 236.264 -1.37689 255.035 11.6083 280.593C24.4617 305.892 36.16 320.34 46.3038 327.765C49.2769 329.941 52.3116 331.618 55.3037 332.747C65.3814 348.59 78.0264 363.063 93.1977 375.553C115.998 394.325 142.096 406.637 169.426 412.752C183.956 428.036 200.55 436.808 218.291 437.144C239.074 437.539 258.722 426.306 275.646 406.478C311.199 394.345 344.35 372.134 370.448 340.435C374.097 336.003 377.538 331.471 380.771 326.852C389.118 326.501 401.569 323.584 410.568 313.358C413.669 309.834 413.326 304.463 409.802 301.362C406.278 298.261 400.907 298.603 397.806 302.128C396.628 303.466 395.31 304.589 393.917 305.529C407.555 280.202 415.566 253.03 418.075 225.83C422.842 224.014 427.831 221.619 431.945 218.687C436.264 215.609 442.318 210.003 442.006 201.891C441.68 193.438 434.762 187.744 427.061 183.849C424.222 182.413 420.892 181.019 417.029 179.668ZM19.4447 232.296C20.9201 229.859 23.2286 228.072 25.9634 226.903C25.6566 247.188 28.4104 267.295 34.1737 286.462C31.8022 282.446 29.3292 277.941 26.7644 272.893C14.5496 248.851 16.4215 237.288 19.4447 232.296ZM418.755 198.705C418.869 201.396 418.928 204.094 418.934 206.795C420.088 206.161 421.148 205.506 422.079 204.843C423.551 203.794 424.304 203.022 424.683 202.555C424.068 201.887 422.628 200.657 419.388 199.019C419.182 198.914 418.971 198.81 418.755 198.705ZM59.6811 154.781C51.8456 172.784 46.9696 191.508 44.9724 210.243H113.307C113.808 195.076 115.075 180.31 117.029 166.096C97.0026 163.754 79.972 161.006 68.1033 157.629C65.0972 156.774 62.2548 155.834 59.6811 154.781ZM137.652 151.197C138.766 145.172 140.01 139.285 141.376 133.549L305.705 132.032C307.857 142.135 309.619 152.711 310.943 163.682C304.021 163.157 296.916 162.647 289.689 162.146C275.363 161.154 260.524 160.197 245.577 159.233L245.572 159.233L245.563 159.232L245.555 159.232C218.083 157.46 190.247 155.665 164.561 153.583C155.205 152.825 146.197 152.033 137.652 151.197ZM134.934 168.014C143.987 168.907 153.458 169.739 163.188 170.528C189.004 172.62 217.122 174.433 244.705 176.212L244.709 176.213L244.713 176.213L244.719 176.213C259.623 177.175 274.371 178.126 288.514 179.105C296.795 179.679 304.859 180.262 312.629 180.861C313.356 190.42 313.757 200.23 313.803 210.243H131.317C131.819 195.676 133.054 181.553 134.934 168.014ZM119.702 149.29C99.9287 146.999 83.6595 144.381 72.7552 141.278C70.5754 140.658 68.7209 140.048 67.1691 139.46C67.7997 138.302 68.4433 137.148 69.0999 135.998C69.7669 135.662 70.4871 135.314 71.2638 134.954L70.914 134.2L122.86 133.72C121.714 138.814 120.66 144.007 119.702 149.29ZM313.543 227.243H131.07C131.241 258.644 134.894 288.038 141.179 313.965L301.524 311.467C308.192 286.195 312.471 257.692 313.543 227.243ZM113.07 227.243H43.9478C43.5149 258.185 50.9174 288.563 65.7885 315.139L122.752 314.252C116.672 287.783 113.232 258.334 113.07 227.243ZM76.5959 331.973C84.5348 342.824 93.8927 352.81 104.639 361.657C118.906 373.403 134.673 382.363 151.299 388.588C141.613 372.548 133.41 353.116 127.116 331.186L76.5959 331.973ZM301.609 115.069L145.917 116.507C150.943 99.5348 157.072 84.1946 164.03 70.9154C169.092 61.255 174.385 53.0236 179.793 46.1356C208.084 37.334 237.78 35.5106 266.104 40.8889C273.192 49.2113 280.056 59.9271 286.399 73.2362C292.291 85.5997 297.426 99.6558 301.609 115.069ZM320.178 114.898L374.551 114.396C365.419 99.9516 353.96 86.7962 340.236 75.4973C325.968 63.7502 310.2 54.79 293.572 48.5653C304.554 66.75 313.629 89.2947 320.178 114.898ZM81.371 117.102L127.14 116.68C133.278 94.6196 141.215 74.8023 150.531 58.0285C127.474 69.7385 106.159 86.4956 88.323 108.16C85.9051 111.097 83.5879 114.079 81.371 117.102ZM235.042 415.826C225.935 416.948 216.787 417.437 207.67 417.282C211.384 418.467 215.052 419.08 218.632 419.148C223.909 419.248 229.422 418.172 235.042 415.826ZM209.83 21.3285C215.45 18.9825 220.963 17.9067 226.24 18.0068C229.819 18.0747 233.487 18.6874 237.202 19.8727C228.084 19.7178 218.936 20.2061 209.83 21.3285Z" fill="black"/>
</svg>
