<svg width="96" height="90" viewBox="0 0 96 90" fill="none" xmlns="http://www.w3.org/2000/svg">
<path d="M86.2169 47.9048C86.0819 46.3313 93.3875 37.4183 94.7349 38.9232C96.0822 40.4282 88.3214 46.6985 85.7534 45.6087C83.1854 44.5188 80.1957 39.4009 79.5637 36.9166C79.8105 36.2438 79.2046 34.5948 74.8063 33.3812C69.3085 31.8644 65.6534 25.6476 63.8593 21.1538C62.0651 16.66 63.436 10.0103 54.8483 7.53197C46.2606 5.0536 42.8589 2.67678 48.7603 1.79896C54.6617 0.921135 69.3708 7.74703 74.6 13.2322C79.8293 18.7174 83.0042 23.3307 82.4071 26.5764C81.9295 29.1729 84.7905 30.5427 86.2807 30.903C87.3023 31.5699 89.6487 33.2422 90.8613 34.5966C92.377 36.2896 84.5411 45.6773 82.6369 38.5708C80.7328 31.4643 79.9545 13.5219 65.6338 12.1094C64.1997 11.8118 62.5255 11.91 67.3012 14.6833C73.2709 18.15 74.603 27.4631 68.4164 33.002C63.467 37.433 47.724 51.9794 40.4712 58.6986C36.3319 58.2249 28.7265 56.6066 31.42 53.9241C34.7868 50.5709 44.9252 60.4723 42.1303 61.6189C39.3355 62.7655 37.3479 59.1226 35.1683 63.4462C32.9888 67.7698 30.9275 74.3598 23.3268 81.1646C15.726 87.9695 7.87184 90.9345 4.16668 86.796C0.46153 82.6574 1.86728 81.7378 4.16519 79.6805C6.4631 77.6232 28.0031 59.3555 29.2988 55.8231C30.5946 52.2908 33.6845 53.2523 35.0986 51.9863C36.5127 50.7202 63.2864 27.4279 63.2873 23.3604" stroke="#F5F5F5" stroke-width="2" stroke-linecap="round" stroke-linejoin="round"/>
</svg>
