<svg width="317" height="429" viewBox="0 0 317 429" fill="none" xmlns="http://www.w3.org/2000/svg">
<path fill-rule="evenodd" clip-rule="evenodd" d="M232.333 42.1311C228.626 44.8277 223.768 46.1909 218.691 46.774C214.425 47.2641 211.008 49.4577 208.195 54.6791C218.586 57.3467 228.026 60.3649 233.76 64.0188C236.286 65.6284 240.733 68.9779 241.338 74.6408C242.026 81.0892 237.42 85.1681 234.47 87.1289C224.227 93.938 212.571 96.6573 201.413 97.6894C201.31 118.208 203.287 142.522 205.374 168.189C206.036 176.332 206.709 184.61 207.33 192.947C209.944 228.018 228.145 257.117 250.369 285.635C255.904 292.737 261.626 299.729 267.384 306.764L267.499 306.904C273.196 313.865 278.932 320.872 284.423 327.921C295.462 342.092 305.783 356.769 313.299 372.427C317.357 380.88 316.9 389.39 311.744 396.66C307.131 403.162 299.38 407.772 290.797 411.24C273.426 418.258 247.693 422.501 219.135 425.001C161.685 430.03 89.2968 428.262 40.1916 425.109C31.1289 424.637 21.4488 423.158 13.8249 418.861C9.8714 416.633 6.29034 413.547 3.74577 409.321C1.18526 405.07 -0.0292176 400.155 0.0210277 394.757C0.118138 384.325 4.93096 371.753 14.3176 356.561C23.8294 341.166 38.6385 322.139 60.0932 298.576C81.2318 275.36 88.822 261.552 90.6828 251.98C90.7291 251.742 90.7719 251.506 90.8115 251.272C90.3857 247.603 90.1144 243.631 89.957 239.467C88.7506 235.588 86.6976 231.499 84.0141 226.454C83.7834 226.02 83.5495 225.581 83.3127 225.138C77.9157 215.021 71.0585 202.166 68.7232 183.024C66.297 163.136 68.7963 137.189 81.2108 100.587C87.2185 82.8744 91.7877 71.4333 95.329 65.7959C96.2182 64.3805 97.4528 62.6455 99.1051 61.3028C100.697 60.0093 104.706 57.5999 109.468 59.7766C113.222 61.492 114.564 64.9565 114.987 66.1492C115.574 67.8071 115.881 69.6015 116.068 71.1995C116.802 77.4533 116.424 87.7674 115.637 99.6886C114.88 111.157 113.682 124.876 112.416 139.363C112.338 140.261 112.259 141.163 112.18 142.067C109.459 173.241 106.546 207.459 106.792 232.193C106.808 233.817 106.838 235.381 106.882 236.884C107.992 241.302 108.492 246.065 107.952 251.32C108.337 254.075 108.813 256.352 109.375 258.127C116.313 252.791 121.143 244.796 124.285 234.4C127.73 223.003 128.956 209.304 128.883 194.573C128.81 179.895 127.456 164.66 125.985 150.284C125.71 147.591 125.429 144.916 125.151 142.275C123.969 131.028 122.853 120.402 122.516 111.668C122.277 105.445 123.215 99.8064 125.793 95.0028C128.436 90.0766 132.416 86.7491 136.958 84.6052C145.351 80.6432 156.306 80.5094 166.17 80.7288C168.818 80.7877 171.46 80.8773 174.096 80.9666C177.738 81.0901 181.37 81.2132 184.997 81.2548C185.354 76.3397 185.893 71.6113 186.671 67.1489C172.837 64.2175 157.005 61.3359 141.142 58.4485C135.774 57.4714 130.402 56.4937 125.103 55.5132C111.27 52.9536 97.9674 50.3786 86.8028 47.773C75.8958 45.2274 66.1689 42.4678 60.0249 39.331C58.4234 38.5133 56.7912 37.5359 55.3546 36.348C53.9776 35.2093 52.2745 33.4639 51.2789 30.9781C50.1507 28.1608 50.2097 25.0581 51.5129 22.2459C52.6645 19.7607 54.5244 18.0537 56.0846 16.9212C59.1542 14.6931 63.4509 12.9968 68.2954 11.5456C73.3404 10.0344 79.7857 8.56203 87.7243 7.10338C150.771 -4.48094 193.369 0.0340767 216.315 8.88711C222.086 11.1136 226.928 13.7343 230.586 16.6972C234.066 19.5152 237.436 23.4374 238.269 28.4566C239.241 34.3111 236.418 39.1598 232.333 42.1311ZM191.256 50.746C191.321 50.5923 191.387 50.4393 191.453 50.287C196.122 39.5395 204.154 31.332 216.751 29.8851C217.76 29.7692 218.609 29.6231 219.318 29.4666C217.407 28.0441 214.44 26.3853 210.196 24.7476C191.291 17.4539 152.196 12.5417 90.7964 23.8235C84.4881 24.9826 79.4393 26.1022 75.4907 27.1716C79.525 28.4508 84.616 29.8058 90.6665 31.2179C101.418 33.727 114.387 36.2417 128.196 38.7969C133.331 39.747 138.587 40.7033 143.881 41.6665C160.13 44.623 176.734 47.6439 191.256 50.746ZM66.1452 23.209C66.1459 23.2089 66.1583 23.2193 66.1802 23.2404C66.1554 23.2197 66.1444 23.2091 66.1452 23.209ZM66.0309 30.7086C66.0065 30.7303 65.9928 30.7408 65.9919 30.7407C65.9911 30.7406 66.0033 30.7297 66.0309 30.7086ZM203.266 70.966C202.784 73.9068 202.399 77.0952 202.108 80.5248C208.51 79.7737 214.406 78.3698 219.651 75.9692C215.862 74.4758 210.542 72.8269 203.734 71.0852C203.578 71.0455 203.423 71.0057 203.266 70.966ZM225.509 79.0188C225.503 79.0194 225.452 78.9766 225.375 78.8883C225.477 78.974 225.516 79.0181 225.509 79.0188ZM225.499 72.6558C225.562 72.5913 225.602 72.5593 225.606 72.5595C225.61 72.5596 225.579 72.5918 225.499 72.6558ZM184.413 98.2462C180.426 98.1982 176.532 98.0651 172.856 97.9395C170.391 97.8552 168.023 97.7742 165.792 97.7246C155.367 97.4927 148.436 97.9857 144.215 99.9784C142.449 100.812 141.441 101.794 140.773 103.04C140.038 104.409 139.342 106.806 139.504 111.014C139.816 119.128 140.854 129.014 142.029 140.212C142.313 142.919 142.605 145.702 142.897 148.555C144.375 163 145.805 178.93 145.883 194.489C145.96 209.995 144.703 225.607 140.558 239.319C136.393 253.097 129.129 265.527 116.839 273.674C112.922 276.27 107.345 278.086 101.755 275.121C101.155 274.803 100.594 274.448 100.07 274.063C94.3868 284.27 85.4864 295.938 72.6633 310.021C51.5653 333.193 37.5209 351.349 28.7797 365.496C19.9134 379.846 17.0737 389.175 17.0203 394.915C16.9953 397.604 17.581 399.343 18.3088 400.551C19.0526 401.786 20.2481 402.967 22.1719 404.051C26.2869 406.371 32.7405 407.702 41.1242 408.135C41.1475 408.136 41.1707 408.137 41.1939 408.138L41.2311 408.141C89.9426 411.27 161.401 412.99 217.652 408.065C245.955 405.588 269.544 401.491 284.429 395.478C291.975 392.429 296.086 389.35 297.878 386.824C299.126 385.065 299.617 383.207 297.974 379.785C291.24 365.757 281.789 352.203 271.012 338.368C265.647 331.481 260.021 324.607 254.277 317.591L254.229 317.532C248.491 310.522 242.64 303.374 236.96 296.084C214.322 267.036 193.384 234.556 190.377 194.21C189.784 186.253 189.131 178.231 188.481 170.247C186.403 144.737 184.357 119.616 184.413 98.2462ZM90.6422 201.122C91.6904 181.567 93.5302 160.224 95.2444 140.588C95.3212 139.708 95.3978 138.832 95.474 137.959C96.5859 125.232 97.63 113.279 98.3726 102.938C98.0258 103.945 97.6716 104.981 97.3099 106.048C85.4372 141.053 83.5709 164.348 85.5981 180.966C86.5553 188.812 88.3901 195.331 90.6422 201.122Z" fill="black"/>
</svg>
