<?xml version="1.0" encoding="UTF-8" standalone="no"?>
<svg
   xmlns:dc="http://purl.org/dc/elements/1.1/"
   xmlns:cc="http://creativecommons.org/ns#"
   xmlns:rdf="http://www.w3.org/1999/02/22-rdf-syntax-ns#"
   xmlns:svg="http://www.w3.org/2000/svg"
   xmlns="http://www.w3.org/2000/svg"
   xmlns:sodipodi="http://sodipodi.sourceforge.net/DTD/sodipodi-0.dtd"
   xmlns:inkscape="http://www.inkscape.org/namespaces/inkscape"
   width="300"
   height="300"
   viewBox="0 0 79.374998 79.375002"
   version="1.1"
   id="svg8"
   inkscape:version="1.0.1 (1.0.1+r73)"
   sodipodi:docname="squarelogo.svg">
  <defs
     id="defs2">
    <style
       id="style1211">.b{fill:#231f20;}</style>
  </defs>
  <sodipodi:namedview
     id="base"
     pagecolor="#ffffff"
     bordercolor="#666666"
     borderopacity="1.0"
     inkscape:pageopacity="0.0"
     inkscape:pageshadow="2"
     inkscape:zoom="0.98994949"
     inkscape:cx="146.44249"
     inkscape:cy="181.98135"
     inkscape:document-units="mm"
     inkscape:current-layer="layer1"
     inkscape:document-rotation="0"
     showgrid="false"
     units="px"
     inkscape:window-width="1257"
     inkscape:window-height="935"
     inkscape:window-x="593"
     inkscape:window-y="102"
     inkscape:window-maximized="1" />
  <metadata
     id="metadata5">
    <rdf:RDF>
      <cc:Work
         rdf:about="">
        <dc:format>image/svg+xml</dc:format>
        <dc:type
           rdf:resource="http://purl.org/dc/dcmitype/StillImage" />
        <dc:title></dc:title>
      </cc:Work>
    </rdf:RDF>
  </metadata>
  <g
     inkscape:label="Layer 1"
     inkscape:groupmode="layer"
     id="layer1"
     style="display:inline">
    <rect
       style="fill:#e85c5c;fill-opacity:1;stroke:#ff6868;stroke-width:0.244267;stroke-linecap:square;stroke-miterlimit:4.1;stroke-dasharray:0.732804, 0.244267;paint-order:fill markers stroke"
       id="rect1224"
       width="79.13073"
       height="79.13073"
       x="0.47852278"
       y="0.33539465" />
  </g>
  <g
     inkscape:groupmode="layer"
     id="layer2"
     inkscape:label="Layer 2">
    <path
       class="b"
       d="M 13.512311,5.3441321 V 33.134228 L 28.099736,18.546803 V 16.8238 h 1.723 L 41.307699,5.3441321 Z M 57.702686,37.832867 c 4.645782,-2.114112 8.752454,-7.151004 8.752454,-14.904541 0,-6.326499 -3.160592,-12.515582 -10.91413,-15.5863416 l -9.841223,9.8412216 c 3.773694,0.877364 6.115092,3.329729 6.115092,7.277852 0,4.825487 -2.912211,8.001939 -9.973363,8.001939 H 30.419977 l -16.907666,16.90767 v 2.954479 l 21.75958,21.759584 h 9.286271 c 14.624421,0 23.86311,-8.815879 23.86311,-20.580942 0,-9.037872 -6.083371,-13.921489 -10.718586,-15.670921 z M 41.513831,62.605061 H 28.099736 V 43.942667 h 13.324243 c 8.186916,0 11.759792,3.530586 11.759792,9.074867 0,6.226078 -3.641574,9.587527 -11.66994,9.587527 z M 13.512311,74.08473 h 5.523136 l -5.523136,-5.523145 z"
       id="path1215"
       style="display:inline;stroke-width:0.52853" />
  </g>
</svg>
